<svg width="134" height="128" viewBox="0 0 134 128" fill="none" xmlns="http://www.w3.org/2000/svg">
<g filter="url(#filter0_d_611_682)">
<path d="M123.368 99.1667V105.778C123.368 113.05 117.4 119 110.105 119H17.2632C9.90211 119 4 113.05 4 105.778V13.2222C4 5.95 9.90211 0 17.2632 0H110.105C117.4 0 123.368 5.95 123.368 13.2222V19.8333H63.6842C56.3232 19.8333 50.4211 25.7833 50.4211 33.0556V85.9445C50.4211 93.2167 56.3232 99.1667 63.6842 99.1667H123.368ZM63.6842 85.9445H130V33.0556H63.6842V85.9445ZM90.2105 69.4167C84.7063 69.4167 80.2632 64.9872 80.2632 59.5C80.2632 54.0128 84.7063 49.5833 90.2105 49.5833C95.7147 49.5833 100.158 54.0128 100.158 59.5C100.158 64.9872 95.7147 69.4167 90.2105 69.4167Z" fill="url(#paint0_linear_611_682)"/>
</g>
<defs>
<filter id="filter0_d_611_682" x="0" y="0" width="134" height="128" filterUnits="userSpaceOnUse" color-interpolation-filters="sRGB">
<feFlood flood-opacity="0" result="BackgroundImageFix"/>
<feColorMatrix in="SourceAlpha" type="matrix" values="0 0 0 0 0 0 0 0 0 0 0 0 0 0 0 0 0 0 127 0" result="hardAlpha"/>
<feOffset dy="5"/>
<feGaussianBlur stdDeviation="2"/>
<feComposite in2="hardAlpha" operator="out"/>
<feColorMatrix type="matrix" values="0 0 0 0 0.0745098 0 0 0 0 0.376471 0 0 0 0 0.631373 0 0 0 1 0"/>
<feBlend mode="normal" in2="BackgroundImageFix" result="effect1_dropShadow_611_682"/>
<feBlend mode="normal" in="SourceGraphic" in2="effect1_dropShadow_611_682" result="shape"/>
</filter>
<linearGradient id="paint0_linear_611_682" x1="39.1562" y1="-13.2222" x2="39.1562" y2="105.778" gradientUnits="userSpaceOnUse">
<stop offset="0.09375" stop-color="#0792DA"/>
<stop offset="0.71875" stop-color="#84C7EF"/>
<stop offset="1" stop-color="#84C7EF"/>
</linearGradient>
</defs>
</svg>
